<svg xmlns="http://www.w3.org/2000/svg" width="140mm" height="140mm"
     viewBox="0 0 14000 14000" shape-rendering="geometricPrecision"
     text-rendering="geometricPrecision" image-rendering="optimizeQuality"
     fill-rule="evenodd" clip-rule="evenodd">
    <defs>
        <style>
            .gray0{fill:var(--btn-s-color)}
            .gray01{fill:var(--body-color)}
            .gray1{fill:var(--body-color)}
            .gray2{fill:var(--btn-s-color)}
            .gray3{fill:var(--btn-border)}
            .gray4{fill:#bdbdbd}
            .gray5{fill:var(--body-back)}
        </style>
    </defs>
    <g id="Слой_x0020_1">
        <path class="gray3"
              d="M1100.33 226.67c-482.26 0-873.66 252.87-873.66 564.44v2822.22c0 311.57 391.4 564.44 873.66 564.44l5241.97.01H1537.15h11357.61c482.26 0 873.66-252.87 873.66-564.44V791.12c0-311.57-391.4-564.44-873.66-564.44l-11794.43-.01z"></path>
        <path class="gray2"
              d="M7000 226.67H791.11c-311.57 0-564.44 252.87-564.44 564.44v2822.22c0 311.57 252.87 564.44 564.44 564.44l6208.89.01V226.67z"></path>
        <path class="gray3"
              d="M4177.78 8411.11V5588.89c0-311.57-252.87-564.44-564.44-564.44l-2822.23-.01c-311.57 0-564.44 252.87-564.44 564.44v7620c0 311.57 252.87 564.44 564.44 564.44l2822.22.01c311.57 0 564.44-252.87 564.44-564.44V9257.78l.01-846.67z"></path>
        <path class="gray2"
              d="M2202.22 5024.44H791.11c-311.57 0-564.44 252.87-564.44 564.44v7620c0 311.57 252.87 564.44 564.44 564.44l1411.11.01V5024.44z"></path>
        <path class="gray3"
              d="M5588.89 13773.33h7620c311.57 0 564.44-252.87 564.44-564.44V9822.22c0-311.57-252.87-564.44-564.44-564.44h-7620c-311.57 0-564.44 252.87-564.44 564.44v3386.67c0 311.57 252.87 564.44 564.44 564.44zM5588.89 8411.11h7620c311.57 0 564.44-252.87 564.44-564.44V5588.89c0-311.57-252.87-564.44-564.44-564.44l-7620-.01c-311.57 0-564.44 252.87-564.44 564.44v2257.78c0 311.57 252.87 564.44 564.44 564.44v.01z"></path>
        <g id="_2751580794496">
            <path class="gray2"
                  d="M9540 9257.78H5588.89c-311.57 0-564.44 252.87-564.44 564.44v3386.67c0 311.57 252.87 564.44 564.44 564.44H9540V9257.78zM9540 5024.44H5588.89c-311.57 0-564.44 252.87-564.44 564.44v2257.78c0 311.57 252.87 564.44 564.44 564.44l3951.11.01V5024.44z"></path>
        </g>
    </g>
</svg>