<svg xmlns="http://www.w3.org/2000/svg" width="136mm" height="136mm"
     viewBox="0 0 13600 13600" shape-rendering="geometricPrecision"
     text-rendering="geometricPrecision" image-rendering="optimizeQuality"
     fill-rule="evenodd" clip-rule="evenodd">
    <defs>
        <linearGradient id="id34" gradientUnits="userSpaceOnUse" x1="10958.36"
                        y1="16212.62" x2="19710.43" y2="-2612.62">
            <stop offset="0" stop-color="#ab5198"/>
            <stop offset=".259" stop-color="#ef8319"/>
            <stop offset=".49" stop-color="#e74523"/>
            <stop offset=".722" stop-color="#5ab24b"/>
            <stop offset="1" stop-color="#1389c9"/>
        </linearGradient>
        <style>
            .fil222{fill:#c5c6c6;fill-rule:nonzero}
        </style>
    </defs>
    <g id="Слой_x0020_1">
        <circle cx="6800" cy="6800" r="6773.33" fill="url(#id34)"
                fill-rule="nonzero"/>
        <path
                d="M6860.7 11275.88c-233.26 0-450.66-75.35-639.34-223.41-810.9-636.35-887.07-2488.22-895.59-4330.44-.34-69.16-.61-135.12-1.06-197.41-1.53-227.41 5.98-488.1 20.53-759.83-165.74-78.5-327.87-105.7-491.17-81.31 265.3 1307.33 397.75 3571.61-365.18 4321.47-252.65 248.34-585.28 330.01-936.6 230.13-486.75-138.43-820.74-580.89-940.3-1245.92-106.81-593.91-42.7-1341.54 175.84-2051.21 236.56-768.19 618.73-1377.16 1076.59-1715.85-75.72-251.54-190.55-579.86-350.36-858.94-328.69-574.07-598.91-516.15-687.68-497.18-340.92 72.95-643.36 551.97-770.55 1220.42-133.61 702.2-100.83 1322.78-44.05 2061.08l-844.18 64.88c-59.53-774.41-96.36-1480.85 56.52-2284.23 196.85-1034.65 729.62-1741.22 1425.1-1890.05 359.86-76.99 1046.29-61.94 1599.59 904.37 175.74 306.86 302.84 645.11 390.84 920.72 257.04-53.05 517.23-44.34 773.35 26.54 40.96-405.02 93.08-781.76 149.67-1054.92 133.4-643.41 396.93-1090.77 783.27-1329.66 314.59-194.5 699.35-239.55 1112.71-130.12 381.66 101.02 792.16 355.02 1172.55 715.59 887.99-670.67 1609.88-451.14 1971.44-251.04 476.12 263.53 860.9 782.53 1083.47 1461.45 212.41 647.89 268.61 1419.3 158.22 2172.1-63.92 435.85-229.26 928.5-472.63 1422.8 268.87 414.15 380.44 961.87 315.89 1573.42-62.76 594.86-288.82 1208.25-604.68 1640.81l-683.79-499.3c228.31-312.66 399.39-784.12 446.48-1230.39 15.4-145.76 23.92-356.37-14.16-572.11-270.17 385.79-844.26 1119.32-1446.98 1354.22-428.68 167.11-710.25 15.43-839.97-89.85-201.72-163.78-312.5-407.27-312.02-685.67.93-519.75 379.81-1061.53 731.49-1344.96 670.19-540.15 1269.23-701.3 1704.21-634.97 173.28-372.48 291.54-736.81 338.46-1056.88 91.76-625.63 47.33-1259.73-125.04-1785.49-155.79-475.14-400.47-824.76-688.95-984.44-295.83-163.72-632.46-113.14-1002.61 150.18 4.21 5.79 8.39 11.56 12.59 17.38 526.6 731.18 806.71 1533.6 768.51 2201.57-50.35 881.06-516.76 1268.31-936.44 1336.91-513.11 83.71-1014.6-251.12-1247.96-833.52-409.84-1022.8-105.3-2076.74 284.51-2727.83-281.15-272.92-574.6-464.16-829.2-531.55-188.15-49.79-335.65-39.42-450.77 31.75-178.25 110.2-316.42 380.42-399.52 781.42-67.2 324.17-128.53 824.2-169.36 1333.1 389.18 333.32 905.77 952.82 1330.03 2075.97 373.38 988.46 529.09 2006.86 416.48 2724.26-54.95 350.23-236.19 959.17-832.33 1102.17-93.85 22.54-186.03 33.73-275.88 33.73l.01.04zm-689.09-4717.55c.32 51.06.53 104.4.79 159.78 2.83 609.94 6.69 1445.29 96.78 2198 130.86 1093.42 375.66 1392.48 474.82 1470.29 47.76 37.47 97.1 55.99 195 32.49 81.47-19.53 157.37-180.53 193.41-410.16 88.16-561.63-57.92-1462.01-372.11-2293.78-166.16-439.98-368.72-834.68-588.7-1156.63l.01.01zm-2085.63-369.04c-481.97 631.11-790.63 1816.29-640.72 2650.01 27.65 153.72 115.99 518.08 338.59 581.4 71.12 20.21 85.43 6.09 111.55-19.58 144.94-142.43 315.12-651.46 317.87-1617.29 1.46-513.45-45.83-1086.33-127.29-1594.54zm6059.81 2122.38c-176.77 66.3-397.62 185.87-650.53 389.68-137.93 111.18-267.15 275.8-345.68 440.35-51.96 108.88-67.39 186.88-70.04 233.07 165.55-64.48 540.68-336.55 995.52-963.56 23.92-32.99 47.49-66.15 70.72-99.54h.01zM8651.34 4443.44c-196.48 455.8-320.09 1092.12-78.74 1694.52 94.99 236.93 247.57 325.46 325.49 312.87 79.67-13.02 206.06-170.15 227.75-549.65 23.79-415.63-151.45-947.84-474.5-1457.75v.01z"
                fill="#d9dada" fill-rule="nonzero"/>
        <path class="fil222"
              d="M7132.45 10008.73c-36.01 229.61-111.92 390.6-193.41 410.16-78.13 18.76-125.33 10.74-165.5-12.3v865.72c28.79 2.38 57.84 3.57 87.15 3.57 89.85 0 182.03-11.17 275.85-33.68 596.13-143.01 777.37-751.92 832.33-1102.17 112.61-717.39-43.1-1735.8-416.48-2724.26-243.07-643.49-516.47-1121.65-778.83-1475.4v1809.86c305.04 821.85 445.77 1704.79 358.88 2258.51l.01-.01zM11686.11 4301.04c-222.57-678.92-607.35-1197.93-1083.47-1461.45-361.55-200.1-1083.44-419.63-1971.44 251.04-380.39-360.57-790.92-614.57-1172.55-715.59-240.82-63.74-471.91-75.06-685.11-34.95v896.75a439.06 439.06 0 0117.7-11.56c115.15-71.17 262.63-81.57 450.77-31.75 254.61 67.39 548.06 258.6 829.2 531.55-389.81 651.09-694.35 1705-284.51 2727.83 233.36 582.4 734.85 917.23 1247.96 833.52 419.68-68.61 886.09-455.85 936.44-1336.91 38.21-667.97-241.91-1470.4-768.51-2201.57-4.18-5.82-8.36-11.59-12.59-17.38 370.13-263.31 706.78-313.9 1002.61-150.18 288.48 159.68 533.16 509.3 688.95 984.44 172.38 525.75 216.77 1159.85 125.04 1785.49-46.91 320.07-165.18 684.4-338.46 1056.88-434.98-66.36-1034.02 94.8-1704.21 634.97-351.66 283.42-730.54 825.21-731.49 1344.96-.48 278.39 110.3 521.89 312.02 685.67 129.73 105.28 411.29 256.96 839.97 89.85 602.72-234.9 1176.84-968.43 1446.98-1354.22 38.1 215.74 29.55 426.35 14.16 572.11-47.1 446.27-218.18 917.73-446.48 1230.39l683.79 499.3c315.89-432.57 541.92-1045.95 604.68-1640.81 64.56-611.56-47.02-1159.27-315.89-1573.42 243.36-494.29 408.7-986.98 472.63-1422.8 110.41-752.82 54.21-1524.24-158.19-2172.12v-.04zM9125.85 5901.16c-21.7 379.52-148.11 536.63-227.75 549.65-77.89 12.59-230.51-75.94-325.49-312.87-241.35-602.4-117.74-1238.73 78.74-1694.52 323.06 509.93 498.29 1042.14 474.5 1457.75v-.01zm949.19 2510.05c-454.85 627.01-829.97 899.08-995.52 963.56 2.67-46.2 18.1-124.2 70.04-233.07 78.55-164.54 207.78-329.17 345.68-440.35 252.92-203.81 473.76-323.37 650.53-389.68-23.2 33.39-46.78 66.54-70.72 99.54h-.01z"/>
    </g>
</svg>