<svg xmlns="http://www.w3.org/2000/svg" width="79mm" height="21mm" viewBox="0 0 7900 2100" shape-rendering="geometricPrecision" text-rendering="geometricPrecision" image-rendering="optimizeQuality" fill-rule="evenodd" clip-rule="evenodd">
                            <defs>
                                <lineargradient id="id0" gradientUnits="userSpaceOnUse" x1="946.51" y1="1442.82" x2="1259.11" y2="686.17">
                                <stop offset="0" stop-color="#ab5198"></stop>
                                <stop offset=".259" stop-color="#ef8319"></stop>
                                <stop offset=".49" stop-color="#e74523"></stop>
                                <stop offset=".722" stop-color="#5ab24b"></stop>
                                <stop offset="1" stop-color="#1389c9"></stop>
                                </lineargradient>
                                <style>
                                .str0{stroke:#898989;stroke-width:52.92;stroke-miterlimit:22.9256}.fil3{fill:none}.fil0{fill:#898989;fill-rule:nonzero}.fpl2{fill:var(--body-color)}.fpl3{fill:#cccccc00}
                                </style>
                            </defs>
                            <g id="Слой_x0020_1">
                                <path className="fil0" d="M687.17 1198.2c0 44.57-20.4 75.16-61.19 91.78-22.28 9.07-50.04 13.6-83.28 13.6H384.64v-94.05h132.57c13.22 0 22.47-2.36 27.76-7.08 5.28-4.72 7.93-10.29 7.93-16.71 0-10.58-6.23-21.15-18.7-31.73-2.64-2.26-11.71-9.44-27.19-21.53-37.77-29.46-57.22-44.75-58.35-45.88-18.89-15.87-32.3-30.6-40.23-44.19-10.2-17.38-15.3-36.83-15.3-58.36 0-29.84 9.64-53.44 28.9-70.82 22.28-20.01 56.09-30.02 101.41-30.02h159.2v94.04H561.96c-9.82 0-16.99.95-21.53 2.84-8.68 3.77-13.03 10.95-13.03 21.52 0 36.26 13.79 62.32 41.36 78.19 25.31 11.71 50.8 23.22 76.48 34.56 27.95 16.99 41.93 44.94 41.93 83.84zM1827.73 1289.76h-119.54c-4.91-26.44-7.75-42.21-8.5-47.31-.76-5.09-2.27-12.93-4.54-23.51h-118.4c2.64-12.46 5.85-26.53 9.63-42.2 3.78-15.68 7.74-30.88 11.9-45.61h73.08c-4.91-19.26-11.61-40.23-20.11-62.89-8.5-22.66-17.47-43.24-26.91-61.75-20.02 42.68-37.11 87.81-51.27 135.4-14.17 47.59-25.59 96.88-34.28 147.87h-119.54c12.84-67.23 31.35-137.86 55.52-211.89 29.46-88.75 60.05-158.25 91.78-208.48h113.87c15.49 24.93 29.84 50.99 43.06 78.18 21.91 45.32 40.42 91.4 55.52 138.24 20.02 62.31 36.26 130.3 48.73 203.95z"></path>
                                <path d="M1537.04 1458.23h-223.93V995.5c-31.13 32.55-57.66 70.4-79.6 113.56-31.13 61.56-54.12 134.43-68.98 218.63h-141.16c-16.27-91.98-42.8-171.22-79.59-237.73-21.23-38.21-44.22-69.69-68.99-94.46v462.73H650.86V670.75h223.93c41.75 38.2 85.26 93.04 130.54 164.5 43.16 69.34 72.17 128.41 87.03 177.23h4.24c12.74-48.82 41.22-108.25 85.44-178.29 44.22-70.05 87.91-124.53 131.07-163.44h223.93v787.48z" fill="url(#id0)" fill-rule="nonzero"></path>
                                <path className="fpl2" d="M2865.15 1297.26h-127.79v-264.08c-17.77 18.58-32.91 40.18-45.43 64.81-17.77 35.13-30.89 76.72-39.37 124.77H2572c-9.28-52.49-24.42-97.72-45.42-135.67-12.12-21.81-25.24-39.77-39.37-53.91v264.08h-127.8V847.85h127.8c23.82 21.8 48.66 53.09 74.5 93.88 24.63 39.57 41.18 73.28 49.66 101.14h2.43c7.26-27.86 23.52-61.77 48.75-101.75 25.24-39.97 50.17-71.07 74.81-93.27h127.79v449.41z"></path>
                                <path id="_1" className="fpl2" d="M3290.34 1122.82c0 56.13-16.76 100.55-50.27 133.25-33.52 32.71-78.34 49.06-134.47 49.06-56.12 0-100.94-16.35-134.46-49.06-33.51-32.7-50.27-77.12-50.27-133.25 0-56.12 16.76-100.54 50.27-133.25 33.52-32.7 78.34-49.06 134.46-49.06 56.53 0 101.46 16.26 134.77 48.76 33.31 32.51 49.97 77.02 49.97 133.55zm-118.11 0c0-35.93-7.47-61.78-22.41-77.52-11.31-11.71-26.05-17.57-44.22-17.57-17.76 0-32.3 5.86-43.6 17.57-15.35 15.74-23.02 41.59-23.02 77.52 0 35.13 7.67 60.77 23.02 76.93 11.71 12.11 26.24 18.17 43.6 18.17 17.77 0 32.31-5.86 43.61-17.57 15.35-15.75 23.02-41.59 23.02-77.53z"></path>
                                <path id="_2" className="fpl2" d="M3587.73 1205.8c0 23.42-7.67 43.21-23.02 59.36-20.19 21.4-50.67 32.1-91.46 32.1h-145.36v-90.85H3446c8.48 0 14.43-1.92 17.87-5.76 3.43-3.83 5.14-7.77 5.14-11.81 0-7.26-3.83-14.13-11.5-20.59-3.23-2.83-11.31-8.28-24.23-16.35-32.71-21.4-53.7-35.74-62.99-43.01-25.84-20.59-38.77-45.02-38.77-73.28 0-34.73 12.93-59.16 38.77-73.29 16.96-9.29 39.37-13.93 67.23-13.93h145.97v90.85h-101.76c-7.27 0-13.12.81-17.56 2.42-4.44 1.62-6.66 5.05-6.66 10.3 0 6.06 6.66 13.73 19.98 23.02 5.25 3.63 16.56 10.49 33.92 20.59 25.04 14.94 43 29.07 53.91 42.4 14.94 18.57 22.41 41.18 22.41 67.83z"></path>
                                <path id="_3" className="fpl2" d="M3761.56 847.85c-4.04 23.01-11.71 42.19-23.02 57.54-11.3 15.34-24.22 23.01-38.76 23.01s-27.56-7.77-39.07-23.32c-11.5-15.54-19.28-34.62-23.31-57.23h124.16zm-4.85 449.41h-114.47V948.39h114.47v348.87z"></path>
                                <path id="_4" className="fpl2" d="M4373.3 1129.49c0 18.17-1.61 37.35-4.84 57.54-5.66 34.32-15.75 71.06-30.29 110.23H4224.3c9.7-28.27 17.27-55.62 22.72-82.07 5.45-26.45 8.17-51.58 8.17-75.41 0-39.57-7.87-68.03-23.62-85.4-10.5-11.71-23.01-17.56-37.55-17.56-1.21 0-3.84.2-7.87.6-4.04.41-7.47 1.01-10.3 1.82-8.88-31.9-25.24-58.14-49.06-78.74 16.15-8.48 33.61-14.64 52.39-18.47 18.78-3.84 35.84-5.76 51.18-5.76 39.17 0 71.87 15.55 98.12 46.64 29.88 35.13 44.82 83.99 44.82 146.58zm-207.75-12.12c0 25.85-3.03 54.92-9.08 87.22-6.06 32.3-13.73 63.19-23.02 92.67h-113.87c7.27-21.8 13.73-49.26 19.39-82.37 5.65-33.11 8.48-59.96 8.48-80.56 0-25.84-5.05-47.85-15.15-66.02-11.71-20.99-27.45-31.49-47.24-31.49-6.46 0-12.31.81-17.56 2.42v-87.22c9.28-3.63 19.28-6.36 29.98-8.17 10.7-1.82 20.69-2.73 29.98-2.73 40.78 0 73.99 16.66 99.63 49.97s38.46 75.41 38.46 126.28zm-221.68 179.89H3829.4V948.39h114.47v348.87z"></path>
                                <path id="_5" className="fpl2" d="M4750.64 1297.26h-196.85c-45.22 0-79.55-8.28-102.96-24.83-25.85-18.17-38.77-45.63-38.77-82.38 0-31.49 10.3-57.33 30.89-77.52 25.04-24.23 62.18-36.34 111.45-36.34h47.24c4.85 8.07 7.97 16.85 9.39 26.34 1.41 9.49 2.12 20.5 2.12 33.01v13.93h-33.31c-13.33 0-23.83 1.62-31.5 4.85-12.11 5.25-18.17 14.13-18.17 26.65 0 8.48 3.33 15.44 9.99 20.9 6.67 5.45 15.65 8.17 26.96 8.17h69.04v-80.55c0-40.79-8.27-67.94-24.83-81.47-16.55-13.52-40.98-20.29-73.29-20.29-26.65 0-54.31 3.64-82.97 10.9v-90.85c39.97-4.84 75.91-7.27 107.81-7.27 48.45 0 87.82 8.89 118.1 26.65 46.44 27.06 69.66 73.49 69.66 139.31v190.79z"></path>
                                <path id="_6" className="fpl2" d="M5059.53 1297.26c-17.36 5.25-37.35 7.87-59.96 7.87-65.01 0-114.68-17.96-149-53.9-31.09-32.3-46.64-74.5-46.64-126.59 0-54.91 15.35-98.72 46.03-131.43 33.11-35.13 79.95-52.7 140.52-52.7 22.21 0 43 2.63 62.39 7.88v90.85c-8.08-3.63-16.16-6.46-24.23-8.48-8.08-2.02-16.56-3.03-25.44-3.03-22.61 0-40.58 6.06-53.91 18.17-18.17 16.15-27.25 42.4-27.25 78.74 0 30.29 7.17 53.4 21.5 69.35 14.34 15.95 35.03 23.93 62.08 23.93 21.81 0 39.78-3.84 53.91-11.51v90.85z"></path>
                                <path id="_7" className="fpl2" d="M5723.96 1071.34c0 62.99-15.95 113.87-47.85 152.63-25.44 30.69-60.57 53.3-105.39 67.84-32.71 10.5-66.83 15.75-102.36 15.75v-100.55c21.81 0 41.09-3.33 57.84-9.99 16.76-6.66 29.68-15.55 38.77-26.45 9.08-10.9 15.95-24.83 20.59-41.89 4.64-16.96 6.97-35.64 6.97-55.82 0-39.27-11.31-69.86-33.92-91.66-22.61-21.91-53.91-32.81-93.88-32.81h-19.99v348.87h-127.8V847.85h113.87c44.82 0 82.77 3.23 113.87 9.69 52.08 10.9 92.87 30.68 122.34 59.35 37.96 37.15 56.94 88.63 56.94 154.45z"></path>
                                <path id="_8" className="fpl2" d="M6130.37 1152.5h-215.62c-3.23-4.44-5.86-9.69-7.88-15.75-2.02-6.05-3.02-12.92-3.02-20.59 0-6.06.4-11.91 1.21-17.56.8-5.66 1.61-10.1 2.42-13.33h113.26c0-24.23-8.07-40.78-24.23-49.66-9.69-5.25-22.61-7.88-38.76-7.88-26.65 0-46.64 8.48-59.96 25.44-11.71 14.94-17.57 35.53-17.57 61.78 0 28.67 7.88 51.48 23.63 68.44 21.4 23.02 55.52 34.53 102.36 34.53 17.36 0 32.5-1.32 45.42-3.94 12.92-2.63 26.25-6.56 39.98-11.81v90.85c-15.75 3.63-33.52 6.56-53.3 8.78a531.984 531.984 0 01-59.36 3.33c-66.63 0-119.32-16.55-158.08-49.66-38.77-33.11-58.15-78.13-58.15-135.07 0-57.74 18.17-102.56 54.51-134.46 34.32-30.28 80.36-45.43 138.1-45.43 48.45 0 86.61 11.92 114.47 35.74 40.38 34.32 60.57 93.07 60.57 176.25z"></path>
                                <path id="_9" className="fpl2" d="M6421.7 1205.8c0 23.42-7.67 43.21-23.02 59.36-20.19 21.4-50.67 32.1-91.46 32.1h-145.36v-90.85h118.11c8.48 0 14.43-1.92 17.87-5.76 3.43-3.83 5.14-7.77 5.14-11.81 0-7.26-3.83-14.13-11.5-20.59-3.23-2.83-11.31-8.28-24.23-16.35-32.71-21.4-53.7-35.74-62.99-43.01-25.84-20.59-38.77-45.02-38.77-73.28 0-34.73 12.93-59.16 38.77-73.29 16.96-9.29 39.37-13.93 67.23-13.93h145.97v90.85H6315.7c-7.27 0-13.12.81-17.56 2.42-4.44 1.62-6.66 5.05-6.66 10.3 0 6.06 6.66 13.73 19.98 23.02 5.25 3.63 16.56 10.49 33.92 20.59 25.04 14.94 43 29.07 53.91 42.4 14.94 18.57 22.41 41.18 22.41 67.83z"></path>
                                <path id="_10" className="fpl2" d="M6595.53 847.85c-4.04 23.01-11.71 42.19-23.02 57.54-11.3 15.34-24.22 23.01-38.76 23.01s-27.56-7.77-39.07-23.32c-11.5-15.54-19.28-34.62-23.31-57.23h124.16zm-4.85 449.41h-114.47V948.39h114.47v348.87z"></path>
                                <path id="_11" className="fpl2" d="M6950.46 1058.02c0 32.7-11.91 59.76-35.73 81.16-26.25 23.82-62.99 35.73-110.24 35.73-46.84 0-83.58-11.91-110.23-35.73-24.23-21.81-36.34-48.86-36.34-81.16 0-30.69 10.09-56.94 30.28-78.74 23.02-24.63 54.11-36.95 93.28-36.95 0-35.13 14.74-60.36 44.21-75.71 23.83-12.52 57.74-18.77 101.76-18.77v83.58h-11.51c-16.56 0-28.67 2.02-36.34 6.06-5.65 2.82-9.69 7.26-12.12 13.32 24.23 4.44 44.42 17.77 60.57 39.98 14.94 20.59 22.41 43 22.41 67.23zm12.72 198.66c0 19.38-6.36 34.83-19.08 46.33-12.72 11.51-29.37 17.27-49.97 17.27-9.28 0-17.76-1.01-25.43-3.03 2.82-1.21 4.24-4.44 4.24-9.69l-.61-3.64c-2.02-5.25-6.86-8.28-14.54-9.08h-9.08c-7.27 0-13.33.3-18.17.91-4.85.6-13.33 2.52-25.44 5.75-19.79 4.44-32.61 7.17-38.46 8.18-5.86 1.01-13.43 1.51-22.71 1.51-33.52 0-59.76-8.28-78.74-24.83-18.98-16.56-28.47-38.97-28.47-67.23 0-31.09 11.71-55.93 35.13-74.5 8.88 8.88 18.37 16.55 28.47 23.01 13.73 8.89 26.85 14.54 39.37 16.96v6.06c0 4.85 3.02 8.88 9.08 12.11 6.06 3.23 13.12 4.85 21.2 4.85s18.37-1.62 30.89-4.85c8.88-2.82 15.34-4.64 19.38-5.45 20.6-6.05 41.39-9.08 62.39-9.08 23.82 0 43.2 6.16 58.14 18.47 14.94 12.32 22.41 28.97 22.41 49.97zm-119.92-198.66c0-9.69-3.64-17.77-10.9-24.23-7.27-6.46-16.56-9.69-27.87-9.69-12.92 0-22.71 3.13-29.37 9.39-6.66 6.26-9.99 14.43-9.99 24.53 0 8.48 2.01 15.34 6.05 20.59 6.46 8.48 17.57 12.72 33.31 12.72 12.93 0 22.62-3.23 29.08-9.69 6.46-6.46 9.69-14.34 9.69-23.62z"></path>
                                <path id="_12" className="fpl2" d="M7349.61 1117.37c0 19.79-1.82 41.19-5.45 64.21-5.25 32.3-14.13 70.86-26.65 115.68h-114.48c8.08-25.44 14.84-53.3 20.29-83.58 5.46-30.29 8.18-56.74 8.18-79.35 0-35.93-7.06-62.18-21.2-78.74-10.9-12.51-24.83-18.77-41.79-18.77-6.46 0-12.31.81-17.56 2.42v-87.22c9.28-3.63 18.77-6.36 28.46-8.17 9.69-1.82 20.19-2.73 31.5-2.73 46.03 0 81.36 17.97 105.99 53.91 21.81 31.49 32.71 72.27 32.71 122.34zm-222.29 179.89h-114.47V948.39h114.47v348.87z"></path>
                                <path className="fpl3 str0" d="M1637.79 1425.92c-117.01 175.71-316.9 291.48-543.83 291.48-226.94 0-426.83-115.77-543.84-291.48M1670.62 757.99c-109.78-206.12-326.83-346.43-576.66-346.43-249.83 0-466.88 140.31-576.67 346.43"></path>
                            </g>
                            </svg>