<svg xmlns="http://www.w3.org/2000/svg" width="260mm" height="260mm"
     viewBox="0 0 26000 26000" shape-rendering="geometricPrecision"
     text-rendering="geometricPrecision" image-rendering="optimizeQuality"
     fill-rule="evenodd" clip-rule="evenodd">
    <defs>
        <style>

            .strok2 {stroke:var(--body-color)}
        </style>
    </defs>
    <g id="Слой_x0020_1">
        <g id="_2751526220336">
            <path class="gray2"
                  d="M16163.13 13696.41l-1913.87-1913.87c-576.79 183.5-1048.68 367.04-1363.28 550.54l629.19 2149.81c603-393.24 1625.48-734.08 2647.96-786.48zM21799.84 19805.01v-471.89l-4116.08-4116.08c-3408.24 157.3-5584.26 1494.38-5584.26 4116.08 0 1730.32 1310.88 3329.59 3486.89 3329.59 1284.63 0 2385.76-471.89 3093.65-1337.08h78.64l209.75 1074.89 3041.19-.01c-157.34-576.78-209.78-1573.02-209.78-2595.5zm-3250.95-1310.88c0 209.75-26.2 393.25-78.65 576.79-209.75 681.64-917.59 1232.23-1756.57 1232.23-760.29 0-1337.08-419.49-1337.08-1284.63 0-1284.63 1363.28-1704.12 3146.05-1704.12v1179.78l26.25-.01v-.04z"></path>
        </g>
        <path class="gray2"
              d="M21799.84 16029.72c0-2543.06-1127.33-4666.67-4745.32-4666.67-1127.33 0-2071.16 183.5-2831.45 419.49l1913.87 1913.87h314.6c1651.67 0 1966.27 812.74 1966.27 1389.53v131.1c-262.19 0-498.14 0-760.29 26.2l4116.08 4116.08v-3329.59l26.24-.01z"></path>
        <path class="gray3"
              d="M5545.16 18599.03l-1048.68 3827.73h-3486.9L5571.36 7509.11h4404.48l4640.43 14917.6-3618 .01-1153.58-3827.73-4299.53-.01v.05zm3775.28-2516.86l-917.59-3172.3c-235.95-891.39-498.14-2018.72-734.09-2883.9h-52.44c-209.75 891.39-445.69 2018.72-655.44 2883.9l-917.59 3172.3h3277.15z"
              fill="#44c4a1" fill-rule="nonzero"></path>
        <path class="strok2" fill="none" stroke-width="846.67"
              stroke-miterlimit="22.926"
              d="M3678.89 7027.33v-3344.2h14715.67l6595.04 6974.7v9145.99h-1515.81"></path>
    </g>
</svg>